<svg xmlns="http://www.w3.org/2000/svg" xmlns:xlink="http://www.w3.org/1999/xlink"
    width="395.52"
    viewBox="6.5 -41.54999923706055 165.6300048828125 59.900001525878906"
    height="143.02232417748263" preserveAspectRatio="xMidYMid meet">
    <path
        d="M39.1-26.95L39.1-26.95Q39.1-24.2 37.73-21.7 36.35-19.2 34.02-17.32 31.7-15.45 28.58-14.35 25.45-13.25 21.95-13.25L21.95-13.25Q20.7-13.25 19.98-13.58 19.25-13.9 18.35-14.85L18.35-14.85Q15.85-9.4 14.28-4.83 12.7-0.25 11.8 4.05L11.8 4.05Q9.9 3.6 8.7 2.48 7.5 1.35 6.5-0.35L6.5-0.35Q7-1.3 7.7-2.85 8.4-4.4 9.4-6.68 10.4-8.95 11.73-12.13 13.05-15.3 14.85-19.55L14.85-19.55Q15.65-21.5 16.25-22.95 16.85-24.4 17.3-25.68 17.75-26.95 18.13-28.2 18.5-29.45 18.9-30.95L18.9-30.95Q16.55-30.2 14.58-29.2 12.6-28.2 11.3-27.1L11.3-27.1Q10.85-27.4 10.38-28 9.9-28.6 9.5-29.33 9.1-30.05 8.8-30.8 8.5-31.55 8.45-32.15L8.45-32.15Q9.9-33.15 12.05-34 14.2-34.85 16.65-35.48 19.1-36.1 21.73-36.45 24.35-36.8 26.75-36.8L26.75-36.8Q29.6-36.8 31.9-36.08 34.2-35.35 35.8-34.05 37.4-32.75 38.25-30.95 39.1-29.15 39.1-26.95ZM30.2-32.95L30.2-32.95Q28.3-32.95 26.3-32.65L26.3-32.65 26.9-31.75Q26.4-31.1 25.65-29.8 24.9-28.5 24-26.68 23.1-24.85 22.03-22.6 20.95-20.35 19.75-17.85L19.75-17.85Q23.65-17.85 26.85-18.57 30.05-19.3 32.33-20.58 34.6-21.85 35.88-23.55 37.15-25.25 37.15-27.2L37.15-27.2Q37.15-29.8 35.4-31.38 33.65-32.95 30.2-32.95ZM35.4-1L35.4-1Q35.65-2.45 36.27-4.83 36.9-7.2 37.75-9.88 38.6-12.55 39.55-15.25 40.5-17.95 41.4-20.1L41.4-20.1Q42.05-21.65 42.55-22.53 43.05-23.4 43.65-24L43.65-24Q44.35-23.9 45.1-23.65 45.85-23.4 46.55-23.05 47.25-22.7 47.8-22.33 48.35-21.95 48.65-21.6L48.65-21.6Q47.3-20 46.27-17.95 45.25-15.9 44.2-12.7L44.2-12.7Q46.9-15.1 48.97-17.3 51.05-19.5 52.85-22.2L52.85-22.2Q53.15-22.45 53.9-22.45L53.9-22.45Q54.6-22.45 55.25-22.23 55.9-22 56.15-21.6L56.15-21.6Q55.25-19.2 55.25-16.85L55.25-16.85Q55.25-14.65 55.9-13.55L55.9-13.55Q55.85-13.25 55.22-12.4 54.6-11.55 53.85-10.8L53.85-10.8Q52.5-11.5 51.45-12.73 50.4-13.95 49.9-15.4L49.9-15.4Q47.55-13.75 45.9-12.18 44.25-10.6 43.07-8.68 41.9-6.75 41.07-4.25 40.25-1.75 39.5 1.7L39.5 1.7Q39.05 1.65 38.42 1.38 37.8 1.1 37.17 0.7 36.55 0.3 36.05-0.15 35.55-0.6 35.4-1ZM62.65 1.75L62.65 1.75Q59.8 1.45 58.1-0.75 56.4-2.95 56.4-6.35L56.4-6.35Q56.4-8.35 57-10.5 57.6-12.65 58.7-14.68 59.8-16.7 61.3-18.5 62.8-20.3 64.55-21.6L64.55-21.6Q67.3-23.65 69.7-23.65L69.7-23.65Q71.3-22.8 72.84-20.1L72.84-20.1Q73.09-20.1 73.3-20.13 73.5-20.15 73.75-20.15L73.75-20.15Q76.4-20.15 76.4-15.45L76.4-15.45Q76.4-12.3 75.37-9.47 74.34-6.65 72.52-4.35 70.7-2.05 68.17-0.48 65.65 1.1 62.65 1.75ZM65.2-14L65.2-14Q64.34-12.85 63.6-11.5 62.85-10.15 62.3-8.78 61.75-7.4 61.45-6.13 61.15-4.85 61.15-3.85L61.15-3.85Q61.15-2.65 61.55-1.55 61.95-0.45 62.45-0.3L62.45-0.3Q64.7-0.8 66.57-2.18 68.45-3.55 69.82-5.6 71.2-7.65 71.97-10.25 72.75-12.85 72.75-15.8L72.75-15.8Q72.75-17.1 72.59-17.85 72.45-18.6 72.09-19.15L72.09-19.15Q69.9-18.5 68.17-17.05 66.45-15.6 65.2-14ZM68.69 14.9L68.69 14.9Q68.69 14.6 68.89 14.35 69.09 14.1 69.34 13.85L69.34 13.85Q69.94 14.4 70.37 14.7 70.79 15 71.17 15.2 71.54 15.4 71.94 15.45 72.34 15.5 72.89 15.5L72.89 15.5Q75.49 15.5 77.84 14.13 80.19 12.75 82.27 10.15 84.34 7.55 86.04 3.8 87.74 0.05 89.04-4.7L89.04-4.7Q88.44-4.1 87.57-3.38 86.69-2.65 85.74-2 84.79-1.35 83.87-0.8 82.94-0.25 82.29 0L82.29 0Q81.44-0.15 80.72-0.73 79.99-1.3 79.44-2.15 78.89-3 78.59-4.08 78.29-5.15 78.29-6.35L78.29-6.35Q78.29-8.3 79.02-10.35 79.74-12.4 80.94-14.38 82.14-16.35 83.77-18.1 85.39-19.85 87.22-21.15 89.04-22.45 90.92-23.23 92.79-24 94.59-24L94.59-24Q96.34-24 97.22-23.28 98.09-22.55 98.49-20.8L98.49-20.8Q97.94-21.1 97.09-21.1L97.09-21.1Q95.89-21.1 94.32-20.15 92.74-19.2 91.12-17.68 89.49-16.15 87.89-14.18 86.29-12.2 85.07-10.15 83.84-8.1 83.07-6.15 82.29-4.2 82.29-2.65L82.29-2.65Q82.29-2.3 82.34-2.23 82.39-2.15 82.49-2.15L82.49-2.15Q82.94-2.15 83.72-2.65 84.49-3.15 85.47-3.93 86.44-4.7 87.49-5.73 88.54-6.75 89.49-7.8L89.49-7.8Q91.64-10.2 93.42-13.18 95.19-16.15 96.24-18.95L96.24-18.95Q97.59-18.85 98.64-18.5 99.69-18.15 100.09-17.75L100.09-17.75Q98.39-13.85 97.37-11.2 96.34-8.55 95.59-6.5L95.59-6.5Q94.24-2.9 93.07 0.08 91.89 3.05 90.67 5.58 89.44 8.1 88.02 10.28 86.59 12.45 84.79 14.45L84.79 14.45Q83.94 15.4 82.87 16.13 81.79 16.85 80.67 17.35 79.54 17.85 78.47 18.1 77.39 18.35 76.49 18.35L76.49 18.35Q75.29 18.35 74.04 18.07 72.79 17.8 71.72 17.32 70.64 16.85 69.84 16.23 69.04 15.6 68.69 14.9ZM118.54-20.2L118.54-20.2Q119.04-20.2 119.72-20.03 120.39-19.85 120.94-19.58 121.49-19.3 121.87-19 122.24-18.7 122.24-18.45L122.24-18.45Q121.24-16.35 120.39-14.23 119.54-12.1 118.94-10.15 118.34-8.2 118.02-6.5 117.69-4.8 117.69-3.55L117.69-3.55Q117.69-2.15 117.99-1.23 118.29-0.3 118.99 0.1L118.99 0.1Q118.39 0.5 117.44 0.75 116.49 1 115.74 1L115.74 1Q113.04 1 113.04-2.7L113.04-2.7Q113.04-5.55 114.94-10.5L114.94-10.5Q113.94-8.2 112.64-6.18 111.34-4.15 109.99-2.6 108.64-1.05 107.27-0.08 105.89 0.9 104.74 1.1L104.74 1.1Q102.89 1 101.74-0.68 100.59-2.35 100.59-4.95L100.59-4.95Q100.59-7.75 101.79-10.85 102.99-13.95 104.87-16.6 106.74-19.25 108.94-21.03 111.14-22.8 113.19-22.9L113.19-22.9Q113.69-22.75 114.32-22.3 114.94-21.85 115.52-21.25 116.09-20.65 116.49-20.03 116.89-19.4 116.94-18.95L116.94-18.95Q114.94-18.65 112.82-17 110.69-15.35 108.97-13.03 107.24-10.7 106.14-8.05 105.04-5.4 105.04-3.1L105.04-3.1Q105.04-2.15 105.74-1.9L105.74-1.9Q107.19-2.2 109.09-4.38 110.99-6.55 113.69-11.1L113.69-11.1Q114.19-12 114.82-13.1 115.44-14.2 116.09-15.4 116.74-16.6 117.37-17.82 117.99-19.05 118.54-20.2ZM132.89-24.25L132.89-24.25Q134.19-23.85 135.34-22.48 136.49-21.1 137.04-19.45L137.04-19.45Q136.49-18.1 135.34-16.2 134.19-14.3 133.04-12.33 131.89-10.35 130.96-8.58 130.04-6.8 129.89-5.65L129.89-5.65Q130.69-6.5 131.66-7.63 132.64-8.75 133.56-9.88 134.49-11 135.29-11.93 136.09-12.85 136.54-13.3L136.54-13.3Q137.49-14.3 138.79-15.63 140.09-16.95 141.51-18.13 142.94-19.3 144.39-20.13 145.84-20.95 147.04-20.95L147.04-20.95Q148.34-20.95 149.21-20.08 150.09-19.2 150.59-18.25L150.59-18.25Q150.59-18.15 150.21-17.98 149.84-17.8 149.14-17L149.14-17Q148.44-16.1 147.56-14.53 146.69-12.95 145.86-11.13 145.04-9.3 144.49-7.4 143.94-5.5 143.94-3.95L143.94-3.95Q143.94-2.7 144.26-2.35 144.59-2 145.19-2L145.19-2Q145.74-2 146.34-2.25 146.94-2.5 147.29-2.5L147.29-2.5Q147.49-2.4 147.61-2.08 147.74-1.75 147.74-1.5L147.74-1.5Q147.34-1.15 146.79-0.8 146.24-0.45 145.64-0.15 145.04 0.15 144.46 0.35 143.89 0.55 143.44 0.55L143.44 0.55Q141.99 0.55 141.06 0.13 140.14-0.3 139.61-1 139.09-1.7 138.89-2.68 138.69-3.65 138.69-4.75L138.69-4.75Q138.69-5.35 138.79-6.1 138.89-6.85 139.19-7.88 139.49-8.9 140.04-10.33 140.59-11.75 141.44-13.75L141.44-13.75Q141.34-13.75 140.09-13.05 138.84-12.35 137.39-10.9L137.39-10.9Q135.04-8.65 133.16-6.45 131.29-4.25 129.34-1.55L129.34-1.55Q128.24 0 127.41 1.07 126.59 2.15 125.99 2.5L125.99 2.5Q124.94 1.9 124.44 0.83 123.94-0.25 123.69-1.4L123.69-1.4Q123.69-2.35 123.96-3.8 124.24-5.25 124.71-7.03 125.19-8.8 125.89-10.75 126.59-12.7 127.44-14.65L127.44-14.65Q129.34-19.05 130.91-21.55 132.49-24.05 132.89-24.25ZM162.69-23.35L162.69-23.35Q163.69-23.35 164.99-22.75 166.28-22.15 167.28-21.2L167.28-21.2Q167.03-23.2 166.66-24.98 166.28-26.75 165.56-28.65 164.84-30.55 163.63-32.8 162.44-35.05 160.63-37.95L160.63-37.95Q160.78-38.4 161.31-39 161.84-39.6 162.51-40.13 163.19-40.65 163.91-41.05 164.63-41.45 165.28-41.55L165.28-41.55Q166.69-40 167.94-37.68 169.19-35.35 170.13-32.68 171.09-30 171.61-27.15 172.13-24.3 172.13-21.7L172.13-21.7Q172.13-19.1 171.56-16.35 170.99-13.6 169.96-10.98 168.94-8.35 167.59-6 166.24-3.65 164.66-1.8 163.09 0.05 161.38 1.23 159.69 2.4 157.99 2.7L157.99 2.7Q154.53 2.3 152.71 0.48 150.88-1.35 150.88-4.55L150.88-4.55Q150.88-6.25 151.41-8.25 151.94-10.25 152.81-12.23 153.69-14.2 154.86-16.07 156.03-17.95 157.36-19.45 158.69-20.95 160.03-22 161.38-23.05 162.69-23.35ZM157.59 0.7L157.59 0.7Q159.34 0.1 161.09-1.95 162.84-4 164.24-6.78 165.63-9.55 166.51-12.73 167.38-15.9 167.38-18.85L167.38-18.85Q167.38-19.7 167.38-19.9 167.38-20.1 167.34-20.3L167.34-20.3Q166.13-19.8 164.78-18.6 163.44-17.4 162.09-15.83 160.74-14.25 159.53-12.4 158.34-10.55 157.38-8.7 156.44-6.85 155.88-5.15 155.34-3.45 155.34-2.15L155.34-2.15Q155.34 0.35 157.59 0.7Z"
        opacity="1" transform="matrix(1,0,0,1,0,0)" fill="#1E293B"
        class="undefined-text-0" id="text-0" />
</svg>